<svg id="Main" xmlns="http://www.w3.org/2000/svg" viewBox="0 0 1080 1080"><defs><style>.cls-1{fill:#40b47a;}.cls-2{fill:#0d7939;}.cls-3{fill:#8febb1;}.cls-4{fill:#9af4b8;}.cls-5{fill:#1e1e1e;}.cls-6{fill:#4d4d4d;}.cls-7{fill:#666;}</style></defs><g id="Color"><g id="Emerald"><path id="Color_Skin" data-name="Color Skin" class="cls-1" d="M656.37,709.47c23.29-11.06,61.63-24.41,90.35-46.59,6.26-4.83,10.44-15.35,11.65-16.94,7.49-9.87,11.47-25.61,13.29-31.08,7.53-22.57,9.41-53.27,9.41-53.27a497.64,497.64,0,0,0,.59-79.77c-1.17-17.09-4.44-38.36-18-70.23C757,395.88,733,349.53,677.55,318.41,643.8,299.49,615,292.85,566,288.76c-38.09-3.17-90.32.29-132.71,9.89-47.21,10.69-77,37-87.53,45.17-33.06,25.64-51.19,52.12-55.06,57.89-20.89,31.16-28.82,59.16-33.88,77.64-6.23,22.74-11.78,72-9.88,101.65,2.7,42.09,12.62,54.54,11.65,70.59-1.44,23.7-3.72,55.66-.36,62.12,5.07,9.71,17.26,6,21.18,15.53,3.42,8.31-3.29,13-1.41,29.64.67,5.92,1.39,11.67,5.64,16.94,5,6.23,12.25,8.45,16.95,9.89,8.81,2.7,12.66,1.95,19.76,4.5,7.69,2.76,4.76,4.33,15.53,11,4.45,2.76,10.24,6.36,18.35,8.47,9.44,2.44,18.12,3.21,22.83,2.82,10.63-.89,10.24-7,15.81-5.18,6.05,2,9,8.1,15,12.24,9.67,6.7,21.13,5.57,25.41,5.65,26.12.47,27.1-9.71,33.88-9.89,7.54-.19,6.69,4.51,16.95,8.47,19.95,7.71,38.86.8,40.94,0,7.16-2.73,19.18-7.32,24-18.35,6.34-14.52,3.76-27.53,4.47-30.82,1-4.82,5.56-3.14,19.53-1.65,12.6,1.34,21.83.15,33.88-1.41,20.2-2.61,27.12-4.63,33.53-12,3.83-4.42,8.56-10.71,11.65-24.71C656.37,715.69,650.93,712.05,656.37,709.47Z"/><path class="cls-2" d="M691.05,592.92s42.17-61.72,48.11-92.13a8.93,8.93,0,0,1,4.24-6.11c3.19-1.78,7.84,2.33,8.21,14.74.76,26.08-5.25,123.43-39.4,128.81C689.55,641.8,673.29,619.28,691.05,592.92Z"/><path class="cls-3" d="M265.79,718.05l7.4-52.23a1.42,1.42,0,0,0,0-.58c-1.94-7.44-36.37-182.76,65.92-284.7,9.68-9.66,17.6-17.06,28.29-23.06,46.42-26,247.87-92.72,369.87,26.34,1,1-15-19.84-15.5-21.12l-7.17-17.51a1.48,1.48,0,0,0-.72-.76L613.32,296.06a1.29,1.29,0,0,0-.51-.14l-102.08-8.29a1.51,1.51,0,0,0-.37,0L399.65,307.06a1.65,1.65,0,0,0-.55.23L320.69,359.5a1.43,1.43,0,0,0-.34.31l-38.06,48.26a1.22,1.22,0,0,0-.17.29l-22.86,49.15a1.34,1.34,0,0,0-.07.18l-16.41,52.5a1.76,1.76,0,0,0-.07.45l.62,65.15a.86.86,0,0,0,0,.16L253,660a.34.34,0,0,1,0,.1l2.36,53.83a1.46,1.46,0,0,0,.78,1.22l7.53,4A1.46,1.46,0,0,0,265.79,718.05Z"/><path class="cls-4" d="M665.71,389c-32.89,0-33,51.11,0,51.11S698.65,389,665.71,389Z"/><path class="cls-5" d="M548.24,776.63c27,5.62,57.68,11.39,82.56-4.19,10-6.23,18.26-15.16,22.6-26.15a41.28,41.28,0,0,0,2.89-16.7c-.13-3.23-1.1-6.77-.6-10,.46-3,2.44-4,5-5.26,11.12-5.33,23-9.28,34.25-14.29s22.19-10.46,32.29-17.4a110.22,110.22,0,0,0,26.6-25.15c8.11-10.94,13.38-23.78,17.21-36.78a376.18,376.18,0,0,0,14.43-88.84c1.32-29.32-.64-59.45-7.49-88.05-10.78-45-35.95-87-72.61-115.56-41.55-32.33-95.59-43.71-147.12-46.87-48.22-3-98.13.66-144.28,15.49-44.71,14.36-85.9,39.59-116,76-33.78,40.79-53.52,91.79-60.23,144a312.32,312.32,0,0,0,.1,79.89c1.87,14.38,5.08,28.45,7.71,42.69a151.86,151.86,0,0,1,2.59,20.48c.38,8.24-.79,16.27-1.29,24.46a179,179,0,0,0,0,20.72c.28,5,.17,10.37,2.56,14.86,2.07,3.87,5.6,6.55,9.19,8.93,2.21,1.47,4.57,2.71,6.85,4.08.6.36,1.77,2.19,1.14.7.48,1.15.2,3.14.15,4.36-.19,5.52-1.6,10.92-2,16.43a40.14,40.14,0,0,0,2.79,18.46c4.36,10.52,12.23,16.33,22.72,20.17a77.93,77.93,0,0,0,29.5,4.53c9.62-.41,9.67-15.41,0-15A63.19,63.19,0,0,1,292.48,778c-8.72-3.77-13-11.12-12.84-20.65.17-10.3,6-23.72-1.29-32.75-3-3.75-7.52-5.64-11.5-8.18-1.45-.93-3.29-2-4.28-3.46.57.85-.36-1.4.05-.17-.06-.17-.34-1.69-.33-1.5-1.14-13.49-.2-26.56.76-40,1-14.51-1.62-29.07-4.48-43.23-5.11-25.3-8.71-50.31-8.32-76.19.74-50.26,14.08-100.48,40.56-143.37,23.64-38.27,58-67.67,98.9-86.27,41.38-18.84,86.19-25.4,131.28-26.3,49.66-1,102.53,3.95,147.53,26.62C707.15,342,736.7,376.3,753.26,416c20.49,49.15,21.46,106.45,12.76,158.32-4.22,25.16-9,53.23-24.21,74.38-13.52,18.78-35.14,29.94-55.82,39-10.61,4.65-21.59,8.51-32.12,13.34-5.3,2.43-10,6.22-12,11.86-2.28,6.44-.39,12.88-.62,19.46-.81,23.7-28.28,34.86-48.3,35.16-13.8.21-27.33-2.58-40.78-5.38-9.42-2-13.44,12.5-4,14.47Z"/><path class="cls-5" d="M318.52,753.05a123.89,123.89,0,0,0-6.1,32.19C312,795.12,318.28,805,326.7,810c18.06,10.56,40.1,14.63,59.52,6,3.74-1.66,4.54-7,2.69-10.26-2.18-3.84-6.58-4.32-10.26-2.69-14.09,6.24-30,1.33-43.06-5.33a14.62,14.62,0,0,1-6.35-5.88c-2-3.47-1.89-6.37-1.52-10.32A117.1,117.1,0,0,1,333,757c2.94-9.22-11.53-13.16-14.47-4Z"/><path class="cls-5" d="M384.66,765.57q-1.8,11-3.07,22.14c-.75,6.6-1.74,13.22.49,19.66,4.2,12.17,14.44,18.22,26.3,21.35,19.82,5.22,47.42,7.41,61.12-11.13,2.43-3.28.52-8.34-2.69-10.26-3.79-2.27-7.87-.55-10.26,2.69-3.87,5.23-12.21,7-18.27,7.07A97.4,97.4,0,0,1,414,814.66c-7.54-1.87-15.7-4.37-17.91-12.83-1.24-4.72.09-10.31.64-15.09.66-5.75,1.49-11.47,2.42-17.18.66-4-1.05-8-5.24-9.23-3.57-1-8.57,1.25-9.22,5.24Z"/><path class="cls-5" d="M457.18,771.81c-.5,7.9-.87,15.82-1.33,23.72-.35,6.11-1,12.55,1.12,18.44,2.52,7,10.45,11.52,17.12,13.92,6.5,2.34,14,2.58,20.81,3,16.39,1,35.36.88,48.28-10.8,6.27-5.67,9.29-13.48,10.49-21.7,1.37-9.33,2.15-18.77,3.17-28.15.43-4-3.76-7.5-7.5-7.5-4.42,0-7.06,3.46-7.5,7.5-.82,7.59-1.56,15.19-2.47,22.76-.73,6.08-1.93,12.32-6.8,16.49-9.81,8.39-25.7,7.12-37.67,6.4-6.62-.4-23.31-.58-24.34-9.48-.59-5.12.28-10.5.56-15.61.34-6.33.66-12.66,1.06-19,.6-9.64-14.4-9.61-15,0Z"/></g></g><g id="EYE"><g id="Noise"><g id="N"><path class="cls-5" d="M393.22,700.68c4.87.88,9,4,13.21,6.57s9.4,4.54,14.06,2.89c5.19-1.84,7.93-7.59,8.83-13,1.28-7.73-.05-15.63-1.37-23.35L426,662.62c-1.49-8.73-3-17.55-6.49-25.69a56.36,56.36,0,0,0-6.07-10.79c-2.23-3.12-5.47-6.29-9.27-5.78-3.55.48-5.8,3.92-7.58,7L392.87,634c-8.43,14.74-16.87,29.49-24.31,44.76-1.68,3.43-3.32,7-3.69,10.77s.78,8,3.8,10.28c3.33,2.55,8,2.33,12.12,1.57s8.38-1.76,12.43-.67"/><path class="cls-5" d="M391.23,707.91c9.38,2.21,15.73,10.48,26.09,10.32,9.3-.14,15.78-7.4,18.41-15.73,3-9.62,1.24-20.15-.4-29.84s-2.95-19.81-5.65-29.39c-2.56-9-6.76-19.25-13.81-25.77s-16.94-5.74-22.89,1.88S382.74,636.5,378,645c-5.24,9.31-10.36,18.71-15.09,28.3-4.58,9.3-8.93,20.63-1.46,29.78a17.78,17.78,0,0,0,13,6.28c5.59.34,11.31-2.49,16.8-1.4,9.43,1.87,13.46-12.59,4-14.46-5.09-1-9.59-.51-14.65.34-3.1.51-7.22,1.88-8.22-2-.91-3.46,2.07-8.08,3.51-11,1.95-4,4-7.86,6-11.75,4.71-8.9,9.67-17.66,14.66-26.4,2.18-3.83,4.31-7.71,6.57-11.49.39-.66,1.51-3.34,2.45-3.48-1.37.21.9,1.56,1.44,2.22,5.58,6.76,8.1,15.83,9.88,24.22,2,9.4,3.76,19.05,4.95,28.59.59,4.77,2.33,18-3.88,20.39-3.29,1.29-8-2.52-10.56-4.09-3.85-2.38-7.73-4.54-12.17-5.58-9.39-2.22-13.4,12.24-4,14.46Z"/></g></g><g id="Base"><g id="EYE_R" data-name="EYE R"><path class="cls-6" d="M463,536.64c-9.88,12.51-9.91,30-8.25,45.86,2.43,23.31,7.85,47.15,21.95,65.87s38.58,31.11,61.29,25.32c8.32-2.12,15.92-6.48,22.82-11.59,15.69-11.6,28.48-27.73,33.7-46.53s2.17-40.26-10.11-55.41c-8.34-10.28-20.17-17.09-32.11-22.79-13.86-6.63-28.5-12.16-43.81-13.55s-36-1.12-45.48,12.82"/><path class="cls-7" d="M456.56,532.85c-10.15,13.44-11,31.18-9.5,47.34,1.63,17.68,4.82,35.34,11.79,51.75,12.65,29.76,41.91,55,76.07,50,17.1-2.54,32.62-13.79,44.33-26,11.52-12,20.6-27.13,23.76-43.6s1.16-33.66-7-48.32c-8.41-15.17-23.22-25-38.44-32.38-18.16-8.85-37-15.22-57.33-15.79-16.5-.46-33.56,2.93-43.72,17-2.38,3.31-.54,8.32,2.69,10.26,3.76,2.25,7.91.58,10.27-2.69,6.54-9.08,19.94-9.84,30.1-9.62,14.5.31,28.38,4,41.66,9.72s27.25,12.5,36.79,23.67c8.82,10.33,12.15,24.37,11.29,37.7s-6.78,26.45-15.08,37c-8.64,11-20.78,21.69-34.15,26.35-26.58,9.25-52.48-9.84-64.45-32.58C468,618,464.42,601.31,462.56,585c-1.72-15.17-2.73-31.75,7-44.58,2.46-3.25.49-8.35-2.69-10.26-3.82-2.29-7.84-.52-10.27,2.69Z"/></g><g id="EYE_L" data-name="EYE L"><path class="cls-6" d="M304.93,633.65c10.72.53,19.45-5.89,27.36-12.63s14.22-15.16,20.07-23.76c12.1-17.82,22.62-37,28-57.87,1.8-6.9,2.81-14.92-1.56-20.56-2.35-3-5.92-4.87-9.49-6.28-19.09-7.58-40.68-5.87-60.61-.89-5.8,1.46-11.63,3.22-16.63,6.51-9.89,6.51-15.2,18.1-18.28,29.53-6.67,24.79-4.69,52.63,9.2,74.22,2.61,4.06,3.4,5.92,7.57,8.34a24.71,24.71,0,0,0,13.73,3.38"/><path class="cls-7" d="M304.93,641.15c14.39.24,26.62-8.67,36.5-18.33,10.32-10.1,18.5-22.7,25.9-35a187,187,0,0,0,18.37-39.7c3.78-12,7-27-3.54-36.63-10-9.17-27.18-11.33-40.17-11.55a125.6,125.6,0,0,0-43.1,6.81c-26.85,9.51-35.38,39.35-36.2,65.35a98,98,0,0,0,9.11,45.08C274.54,622.94,278,629.77,283,634c5.93,5.08,13.7,7.15,21.37,7.14,9.65,0,9.67-15,0-15-4.41,0-9.33-.88-12.44-4.32s-5.26-8.26-7.13-12.24a79.21,79.21,0,0,1-7.06-30.93c-.62-18.53,3-46.76,21.72-56,9.74-4.8,22.17-6.61,32.88-7.42,11.51-.87,23.42-.1,34.23,4.26,3.74,1.5,7.17,3.33,7.82,7.65.81,5.3-1.32,11.18-2.85,16.15A162.49,162.49,0,0,1,357,575.69c-6.25,10.95-13.17,22-21.48,31.49-7.59,8.68-18.31,19.17-30.63,19-9.66-.16-9.66,14.84,0,15Z"/></g><g id="EYE1"><g id="EYE_R-2" data-name="EYE R"><path class="cls-5" d="M468.89,538.49c-9.88,12.51-9.91,30-8.25,45.87,2.43,23.31,7.85,47.14,21.95,65.86s38.58,31.12,61.28,25.33c8.33-2.12,15.93-6.49,22.83-11.59,15.68-11.61,28.48-27.74,33.7-46.53s2.17-40.27-10.12-55.42c-8.33-10.28-20.16-17.08-32.1-22.79-13.86-6.63-28.5-12.16-43.81-13.54s-36-1.13-45.48,12.81"/><path class="cls-5" d="M462.41,534.7c-10.15,13.45-11,31.19-9.5,47.34,1.62,17.68,4.82,35.35,11.79,51.75,12.65,29.77,41.91,55.05,76.07,50,17.09-2.54,32.61-13.79,44.33-26,11.51-12,20.6-27.13,23.76-43.6s1.16-33.66-7-48.32c-8.4-15.17-23.22-25-38.43-32.38-18.16-8.84-37-15.22-57.33-15.79-16.5-.46-33.56,2.93-43.72,17C460,538,461.87,543,465.1,545c3.76,2.25,7.91.57,10.26-2.69,6.55-9.09,19.94-9.85,30.11-9.63,14.5.32,28.38,4,41.66,9.72s27.25,12.5,36.79,23.68c8.82,10.32,12.15,24.36,11.29,37.69s-6.78,26.45-15.08,37c-8.65,11-20.78,21.69-34.15,26.35-26.58,9.25-52.48-9.84-64.45-32.58-7.7-14.62-11.26-31.33-13.12-47.63-1.73-15.18-2.74-31.75,6.95-44.58,2.46-3.26.5-8.36-2.69-10.27-3.81-2.28-7.83-.52-10.26,2.69Z"/></g><g id="EYE_L-2" data-name="EYE L"><path class="cls-5" d="M310.78,635.5c10.72.54,19.45-5.88,27.36-12.63s14.22-15.16,20.06-23.76c12.11-17.82,22.63-37,28-57.86,1.79-6.9,2.8-14.93-1.56-20.57-2.35-3-5.92-4.86-9.49-6.28-19.1-7.57-40.68-5.87-60.61-.88-5.8,1.45-11.64,3.21-16.63,6.5-9.9,6.51-15.2,18.1-18.28,29.54-6.67,24.78-4.7,52.63,9.2,74.21,2.61,4.06,3.4,5.92,7.57,8.34a24.71,24.71,0,0,0,13.73,3.38"/><path class="cls-5" d="M310.78,643c14.39.24,26.61-8.66,36.49-18.33,10.33-10.1,18.5-22.7,25.91-35A187.18,187.18,0,0,0,391.54,550c3.79-12,7-27-3.53-36.64-10-9.16-27.18-11.33-40.17-11.55a125.8,125.8,0,0,0-43.1,6.81c-26.85,9.51-35.38,39.35-36.21,65.35A98.1,98.1,0,0,0,277.65,619c2.74,5.79,6.21,12.62,11.15,16.85,5.92,5.08,13.7,7.15,21.37,7.14,9.65,0,9.67-15,0-15-4.41,0-9.33-.87-12.44-4.32-3-3.3-5.26-8.25-7.13-12.24a79.17,79.17,0,0,1-7.06-30.93c-.62-18.53,3-46.76,21.72-56,9.73-4.8,22.17-6.61,32.88-7.42,11.51-.87,23.42-.09,34.23,4.26,3.74,1.5,7.16,3.33,7.82,7.65.81,5.3-1.32,11.19-2.85,16.15a162.3,162.3,0,0,1-14.46,32.43c-6.25,10.94-13.16,22-21.47,31.48-7.59,8.68-18.32,19.17-30.63,19-9.66-.15-9.66,14.85,0,15Z"/></g></g></g></g></svg>