<svg id="Layer_1" data-name="Layer 1" xmlns="http://www.w3.org/2000/svg" viewBox="0 0 16 16"><defs><style>.cls-1{fill:#fff;}.cls-2{fill:#1e1e1e;}.cls-3{fill:#4d4d4d;}.cls-4{fill:#666;}</style></defs><g id="Color"><path class="cls-1" d="M13.57,8.39A3.83,3.83,0,0,1,13,10a2.76,2.76,0,0,1-1.22.85l-.7.29a.55.55,0,0,0-.26.26,1.24,1.24,0,0,0,0,.43c0,.51-.62.76-1,.76a3.8,3.8,0,0,1-.89-.11.16.16,0,0,0-.12,0l-.06,0a.16.16,0,0,0-.05.11c0,.18,0,.36-.06.54a.44.44,0,0,1-.16.33,1.18,1.18,0,0,1-.81.13c-.14,0-.5,0-.52-.2a1.74,1.74,0,0,1,0-.32c0-.15,0-.29,0-.44s-.31-.21-.32,0l0,.55a1.31,1.31,0,0,0,0,.28h0a.52.52,0,0,1-.39.14,2,2,0,0,1-.59-.07.44.44,0,0,1-.33-.27,1.15,1.15,0,0,1,0-.32c0-.13,0-.25.05-.37a.17.17,0,0,0-.11-.21.16.16,0,0,0-.2.12c0,.16,0,.32-.07.48a.74.74,0,0,0,0,.33H5.13a1.12,1.12,0,0,1-.94-.12A.33.33,0,0,1,4,12.93a2.66,2.66,0,0,1,.12-.56c.06-.2-.25-.28-.31-.08a2.73,2.73,0,0,0-.14.63,1.07,1.07,0,0,1-.43-.09A.44.44,0,0,1,3,12.38c0-.22.13-.52,0-.71a.88.88,0,0,0-.25-.18.22.22,0,0,1-.09-.07v0a5.06,5.06,0,0,1,0-.87,3.79,3.79,0,0,0-.1-.95A7.77,7.77,0,0,1,2.33,7.9a6,6,0,0,1,.88-3.12A4.86,4.86,0,0,1,5.37,2.9a7,7,0,0,1,2.86-.57,6.68,6.68,0,0,1,3.21.58,4,4,0,0,1,1.85,2A6.33,6.33,0,0,1,13.57,8.39Z"/><path class="cls-2" d="M14,7.47a8.45,8.45,0,0,1-.31,1.93,2.46,2.46,0,0,1-.38.8,2.33,2.33,0,0,1-.58.55,4.74,4.74,0,0,1-.7.38c-.25.11-.51.2-.75.31,0,0-.1.05-.11.12a.82.82,0,0,0,0,.22.92.92,0,0,1-.07.36,1.18,1.18,0,0,1-.49.57A2.24,2.24,0,0,1,9,12.84l-.17,0a.16.16,0,0,1-.09-.25l.06,0h.06s0,0,.06,0a3.8,3.8,0,0,0,.89.11c.43,0,1-.25,1-.76a1.24,1.24,0,0,1,0-.43.55.55,0,0,1,.26-.26l.7-.29A2.76,2.76,0,0,0,13,10a3.83,3.83,0,0,0,.53-1.62,6.33,6.33,0,0,0-.28-3.45,4,4,0,0,0-1.85-2,6.68,6.68,0,0,0-3.21-.58,7,7,0,0,0-2.86.57A4.86,4.86,0,0,0,3.21,4.78,6,6,0,0,0,2.33,7.9a7.77,7.77,0,0,0,.18,1.67,3.79,3.79,0,0,1,.1.95,5.06,5.06,0,0,0,0,.87v0a.22.22,0,0,0,.09.07.88.88,0,0,1,.25.18c.16.19,0,.49,0,.71a.44.44,0,0,0,.28.45,1.07,1.07,0,0,0,.43.09h.16c.21,0,.21.32,0,.33h-.1a1.71,1.71,0,0,1-.54-.1.74.74,0,0,1-.49-.44.79.79,0,0,1-.07-.4c0-.12,0-.24,0-.36s0-.07,0-.09l0,0-.15-.09a.61.61,0,0,1-.2-.19.65.65,0,0,1-.05-.31,3.38,3.38,0,0,1,0-.45,4.87,4.87,0,0,0,0-.54,3.44,3.44,0,0,0,0-.45c-.06-.31-.13-.62-.17-.94a6.76,6.76,0,0,1,0-1.74A6.16,6.16,0,0,1,3.37,4,5.33,5.33,0,0,1,5.9,2.35,8.33,8.33,0,0,1,9,2a5.82,5.82,0,0,1,3.21,1,4.61,4.61,0,0,1,1.58,2.52A6.87,6.87,0,0,1,14,7.47Z"/><path class="cls-2" d="M5.3,13.65h0A1.38,1.38,0,0,1,4,13.52a.65.65,0,0,1-.26-.26A.51.51,0,0,1,3.68,13v-.09a2.73,2.73,0,0,1,.14-.63c.06-.2.37-.12.31.08a2.66,2.66,0,0,0-.12.56.33.33,0,0,0,.18.33,1.12,1.12,0,0,0,.94.12h.06a.13.13,0,0,1,.16.07A.16.16,0,0,1,5.3,13.65Z"/><path class="cls-2" d="M7.11,13.69a.34.34,0,0,1-.12.12.92.92,0,0,1-.5.2,2.23,2.23,0,0,1-.77-.09.88.88,0,0,1-.42-.27.57.57,0,0,1-.1-.19.14.14,0,0,1,0-.09.74.74,0,0,1,0-.33c0-.16,0-.32.07-.48a.16.16,0,0,1,.2-.12.17.17,0,0,1,.11.21c0,.12,0,.24-.05.37a1.15,1.15,0,0,0,0,.32.44.44,0,0,0,.33.27,2,2,0,0,0,.59.07.52.52,0,0,0,.39-.14h0a.18.18,0,0,1,.23-.06A.16.16,0,0,1,7.11,13.69Z"/><path class="cls-2" d="M9,12.66c0,.06,0,.12,0,.18a3.55,3.55,0,0,1-.06.47.74.74,0,0,1-.24.46,1.5,1.5,0,0,1-1,.22,1.84,1.84,0,0,1-.4-.06A.88.88,0,0,1,7,13.81a.52.52,0,0,1-.14-.16.36.36,0,0,1,0-.11h0a1.31,1.31,0,0,1,0-.28l0-.55c0-.21.34-.21.32,0s0,.29,0,.44a1.74,1.74,0,0,0,0,.32c0,.18.38.19.52.2a1.18,1.18,0,0,0,.81-.13.44.44,0,0,0,.16-.33c0-.18,0-.36.06-.54a.16.16,0,0,1,.05-.11l.06,0h.06A.16.16,0,0,1,9,12.66Z"/></g><g id="EYE"><g id="Noise"><g id="N"><path class="cls-2" d="M5.44,11.15a.78.78,0,0,1,.29.14.35.35,0,0,0,.31.06.34.34,0,0,0,.19-.28,1.46,1.46,0,0,0,0-.51l0-.24A2.55,2.55,0,0,0,6,9.76a1,1,0,0,0-.14-.24c0-.07-.12-.14-.2-.12s-.12.08-.16.15l-.08.14c-.19.32-.37.65-.53,1a.49.49,0,0,0-.08.23.24.24,0,0,0,.08.23.33.33,0,0,0,.26,0,.5.5,0,0,1,.27,0"/><path class="cls-2" d="M5.4,11.3c.2,0,.34.23.57.23a.45.45,0,0,0,.4-.34,1.3,1.3,0,0,0,0-.65,4.27,4.27,0,0,0-.12-.64,1.36,1.36,0,0,0-.3-.57.33.33,0,0,0-.5,0,4.56,4.56,0,0,0-.33.56l-.33.62a.59.59,0,0,0,0,.65.42.42,0,0,0,.28.14,2.46,2.46,0,0,1,.37,0c.21,0,.29-.27.09-.31a.86.86,0,0,0-.32,0C5.1,11,5,11,5,11s0-.17.08-.24.08-.17.13-.25.21-.39.32-.58l.14-.25s0-.07,0-.07,0,0,0,0a1.18,1.18,0,0,1,.22.53c0,.21.08.42.11.63s0,.39-.09.44-.17-.06-.23-.09A.88.88,0,0,0,5.49,11c-.21-.05-.3.27-.09.31Z"/></g></g><g id="Base"><g id="EYE_R" data-name="EYE R"><path class="cls-3" d="M7,7.57a1.43,1.43,0,0,0-.18,1A3,3,0,0,0,7.26,10a1.37,1.37,0,0,0,1.34.55,1.57,1.57,0,0,0,.5-.25,2,2,0,0,0,.73-1,1.37,1.37,0,0,0-.22-1.21,1.93,1.93,0,0,0-.7-.49,2.7,2.7,0,0,0-1-.3,1.08,1.08,0,0,0-1,.28"/><path class="cls-4" d="M6.82,7.49a1.43,1.43,0,0,0-.2,1,3.63,3.63,0,0,0,.25,1.13,1.65,1.65,0,0,0,1.66,1.09,1.83,1.83,0,0,0,1-.57A1.94,1.94,0,0,0,10,9.22a1.59,1.59,0,0,0-.16-1.05A1.77,1.77,0,0,0,9,7.46a3,3,0,0,0-1.24-.34,1.08,1.08,0,0,0-1,.37.16.16,0,0,0,.06.22.18.18,0,0,0,.23-.06.8.8,0,0,1,.65-.21,2.39,2.39,0,0,1,.91.22,2.11,2.11,0,0,1,.8.51A1.16,1.16,0,0,1,9.72,9a1.52,1.52,0,0,1-.33.81,1.69,1.69,0,0,1-.75.57,1.2,1.2,0,0,1-1.4-.71,2.89,2.89,0,0,1-.29-1,1.33,1.33,0,0,1,.16-1,.16.16,0,0,0-.06-.22.18.18,0,0,0-.23.06Z"/></g><g id="EYE_L" data-name="EYE L"><path class="cls-3" d="M3.52,9.69a.91.91,0,0,0,.6-.28,2.38,2.38,0,0,0,.43-.52,3.78,3.78,0,0,0,.61-1.26.54.54,0,0,0,0-.45.5.5,0,0,0-.21-.13A2.12,2.12,0,0,0,3.6,7a1.13,1.13,0,0,0-.36.14,1.06,1.06,0,0,0-.4.64A2.08,2.08,0,0,0,3,9.43a.42.42,0,0,0,.17.18.61.61,0,0,0,.3.08"/><path class="cls-4" d="M3.52,9.85a1.17,1.17,0,0,0,.79-.4,3.78,3.78,0,0,0,.57-.76,4.26,4.26,0,0,0,.4-.87A.75.75,0,0,0,5.2,7a1.41,1.41,0,0,0-.87-.25,3,3,0,0,0-.94.15A1.44,1.44,0,0,0,2.6,8.34a2.12,2.12,0,0,0,.2,1A1.08,1.08,0,0,0,3,9.69a.72.72,0,0,0,.47.16.17.17,0,0,0,0-.33.36.36,0,0,1-.27-.09,1.07,1.07,0,0,1-.16-.27,1.56,1.56,0,0,1-.15-.67c0-.41.06-1,.47-1.22a2,2,0,0,1,.72-.17,1.69,1.69,0,0,1,.74.1c.08,0,.16.07.17.16A.88.88,0,0,1,5,7.72a3.68,3.68,0,0,1-.32.7,4,4,0,0,1-.46.69,1,1,0,0,1-.67.41.17.17,0,0,0,0,.33Z"/></g><g id="EYE1"><g id="EYE_R-2" data-name="EYE R-2"><path class="cls-2" d="M7.09,7.61a1.43,1.43,0,0,0-.18,1,2.91,2.91,0,0,0,.48,1.44,1.37,1.37,0,0,0,1.34.55,1.52,1.52,0,0,0,.49-.25,2,2,0,0,0,.74-1,1.37,1.37,0,0,0-.22-1.21A1.93,1.93,0,0,0,9,7.63a2.69,2.69,0,0,0-1-.3,1.07,1.07,0,0,0-1,.28"/><path class="cls-2" d="M7,7.53a1.48,1.48,0,0,0-.21,1A4,4,0,0,0,7,9.69a1.64,1.64,0,0,0,1.66,1.09,1.76,1.76,0,0,0,1-.57,1.86,1.86,0,0,0,.52-1,1.53,1.53,0,0,0-.15-1,1.82,1.82,0,0,0-.84-.71A3,3,0,0,0,7.9,7.16a1.06,1.06,0,0,0-1,.37A.16.16,0,0,0,7,7.75a.15.15,0,0,0,.22-.06.83.83,0,0,1,.66-.21,2.39,2.39,0,0,1,.91.22,2.11,2.11,0,0,1,.8.51A1.21,1.21,0,0,1,9.85,9a1.52,1.52,0,0,1-.33.81,1.75,1.75,0,0,1-.75.57,1.2,1.2,0,0,1-1.4-.71,2.83,2.83,0,0,1-.29-1,1.3,1.3,0,0,1,.15-1A.16.16,0,1,0,7,7.53Z"/></g><g id="EYE_L-2" data-name="EYE L-2"><path class="cls-2" d="M3.65,9.73a.87.87,0,0,0,.59-.28,2.43,2.43,0,0,0,.44-.52,4.2,4.2,0,0,0,.61-1.26.54.54,0,0,0,0-.45.5.5,0,0,0-.21-.13,2.13,2.13,0,0,0-1.32,0,1,1,0,0,0-.36.14,1,1,0,0,0-.4.64,2,2,0,0,0,.2,1.62c.06.09.07.13.16.18a.64.64,0,0,0,.3.08"/><path class="cls-2" d="M3.65,9.89a1.17,1.17,0,0,0,.79-.4A4.19,4.19,0,0,0,5,8.73a4.3,4.3,0,0,0,.4-.87.75.75,0,0,0-.08-.8,1.42,1.42,0,0,0-.88-.25A3,3,0,0,0,3.51,7a1.43,1.43,0,0,0-.78,1.42,2.11,2.11,0,0,0,.19,1,1.11,1.11,0,0,0,.25.36.72.72,0,0,0,.46.16.17.17,0,0,0,0-.33.38.38,0,0,1-.27-.09,1.17,1.17,0,0,1-.15-.27,1.73,1.73,0,0,1-.16-.67c0-.41.07-1,.48-1.22a1.94,1.94,0,0,1,.71-.17,1.75,1.75,0,0,1,.75.1.23.23,0,0,1,.17.16.88.88,0,0,1-.06.36,3.68,3.68,0,0,1-.32.7,3.51,3.51,0,0,1-.47.69,1,1,0,0,1-.66.41.17.17,0,0,0,0,.33Z"/></g></g></g></g></svg>